<svg data-bbox="0 0 183.79 48.46" viewBox="0 0 183.79 48.46" xmlns="http://www.w3.org/2000/svg" data-type="color"><path d="M69.59 21.59l-.07-.95H46.1v10.09h11.14A11.61 11.61 0 0147.5 36h-1.4v10.53h1.32A21.69 21.69 0 0063.18 40c4.82-4.76 6.98-11 6.41-18.41z" fill="#1c748c" data-color="1"/><path d="M27.85 13.62a21.4 21.4 0 00-2.59 8.83c0 .55-.06 1.06-.07 1.55L0 0v46.29h10.48V24.37l25.28 24.09V24.35a11.64 11.64 0 01.65-3.84l-8.14-7.74z" fill="#335a68" data-color="2"/><path d="M46.68 2a21.21 21.21 0 00-12.57 4.37 23.87 23.87 0 00-2.38 2.12 34.2 34.2 0 00-2.88 3.43l8 7.57a18.42 18.42 0 012.37-3.35 11.66 11.66 0 017.16-3.39c.25 0 14.2-.05 23.39-.06L58.49 2z" fill="#1c748c" data-color="1"/><path d="M98.52 2H59.87l11.32 10.69h6.5v33.55h10.53V12.69H98.5z" fill="#009dc1" data-color="3"/><path d="M96.74 30.4v-9h2.37l1.89 3.31a28.9 28.9 0 011.46 3.08 36.92 36.92 0 01-.16-3.75v-2.62h1.86v9H102l-1.92-3.46a33.3 33.3 0 01-1.56-3.17c.07 1.2.09 2.46.09 3.93v2.7zM111.81 26.61h-3.3v2.13h3.69v1.66h-5.72v-9H112v1.67h-3.5V25h3.3zM115.66 30.4l-2.13-9h2.17l.68 3.69c.2 1.08.39 2.24.53 3.16.15-1 .36-2.06.59-3.18l.76-3.67h2.15l.72 3.79c.2 1.05.35 2 .48 3 .13-1 .33-2 .52-3.13l.73-3.67H125l-2.32 9h-2.2l-.76-3.86c-.17-.91-.32-1.75-.42-2.77-.16 1-.31 1.86-.52 2.78l-.85 3.85zM137.3 30a10.07 10.07 0 01-3 .51 5.07 5.07 0 01-3.65-1.2 4.49 4.49 0 01-1.26-3.31c0-3 2.19-4.69 5.13-4.69a6.46 6.46 0 012.49.43l-.43 1.64a4.62 4.62 0 00-2.07-.39 2.73 2.73 0 00-3 2.9 2.7 2.7 0 002.84 2.95 3.43 3.43 0 001-.12v-1.87H134v-1.59h3.34zM141.5 28.1l-.62 2.3h-2.11l2.75-9h2.65l2.8 9h-2.19l-.69-2.3zm2.28-1.52l-.56-1.91c-.14-.53-.3-1.21-.44-1.73-.12.54-.26 1.21-.4 1.73l-.54 1.91zM156.29 27c0-1.08-.08-2.38-.08-3.69-.3 1.14-.67 2.42-1 3.47l-1.1 3.51h-1.61l-1-3.48c-.29-1.05-.59-2.32-.81-3.5 0 1.21-.09 2.59-.15 3.71l-.17 3.41h-1.87l.57-9h2.71l.88 3c.29 1 .56 2.16.76 3.21h.05c.24-1 .55-2.22.85-3.22l1-3h2.66l.48 9h-2zM165.85 26.61h-3.3v2.13h3.69v1.66h-5.72v-9h5.53v1.67h-3.5V25h3.3zM168.23 28.31a5.1 5.1 0 002.25.56c.93 0 1.42-.39 1.42-1s-.42-.88-1.5-1.25c-1.49-.54-2.48-1.36-2.48-2.67 0-1.53 1.29-2.69 3.4-2.69a5.34 5.34 0 012.29.45l-.46 1.63a4.17 4.17 0 00-1.86-.43c-.88 0-1.31.42-1.31.87s.5.82 1.67 1.26c1.58.59 2.32 1.42 2.32 2.68 0 1.51-1.15 2.79-3.61 2.79a5.88 5.88 0 01-2.55-.56zM98.48 36.91h-2.42v-1.7H103v1.7h-2.45v7.28h-2zM109.92 40.39h-3.31v2.13h3.69v1.67h-5.71v-9h5.53v1.66h-3.51v1.87h3.31zM118.81 43.93a5.86 5.86 0 01-2.3.39c-3.1 0-4.7-1.94-4.7-4.5a4.56 4.56 0 014.9-4.74 5.69 5.69 0 012.22.38l-.43 1.61a4.34 4.34 0 00-1.71-.33 2.7 2.7 0 00-2.85 3 2.68 2.68 0 002.87 2.92 4.9 4.9 0 001.7-.29zM122.73 35.21v3.46h3.34v-3.46h2v9h-2v-3.77h-3.34v3.75h-2v-9zM130.4 44.19v-9h2.37l1.87 3.29a28 28 0 011.46 3.08 37.12 37.12 0 01-.16-3.76v-2.59h1.87v9h-2.11l-1.91-3.47a28.25 28.25 0 01-1.56-3.17c.06 1.2.09 2.47.09 3.93v2.71zM143.94 44.33c-2.65 0-4.22-2-4.22-4.56 0-2.7 1.73-4.71 4.37-4.71s4.26 2.07 4.26 4.54c0 3-1.77 4.73-4.4 4.73zm.11-1.61c1.37 0 2.16-1.29 2.16-3s-.76-3-2.16-3-2.19 1.36-2.19 3 .82 3 2.18 3zM150.23 35.21h2v7.27h3.57v1.71h-5.6zM160.87 44.33c-2.65 0-4.23-2-4.23-4.56 0-2.7 1.74-4.71 4.37-4.71s4.27 2.07 4.27 4.54c0 3-1.77 4.73-4.4 4.73zm.1-1.61c1.38 0 2.16-1.29 2.16-3s-.76-3-2.16-3-2.18 1.36-2.18 3 .81 3 2.17 3zM174.65 43.77a9.89 9.89 0 01-3 .51 5 5 0 01-3.65-1.2 4.51 4.51 0 01-1.27-3.28c0-3 2.19-4.68 5.13-4.68a6.5 6.5 0 012.49.42l-.42 1.64a4.7 4.7 0 00-2.08-.39 2.73 2.73 0 00-3 2.91 2.7 2.7 0 002.83 2.94 3 3 0 001-.12v-1.89h-1.38v-1.58h3.35zM178.85 44.19v-3.68l-2.85-5.3h2.33l.91 2.16c.28.65.48 1.13.69 1.72.2-.56.41-1.08.67-1.72l.91-2.16h2.28l-3 5.23v3.75z" fill="#849095" data-color="4"/></svg>
